<svg id="Group_1" data-name="Group 1" xmlns="http://www.w3.org/2000/svg" width="97.684" height="97.684" viewBox="0 0 97.684 97.684">
  <path id="Path_11" data-name="Path 11" d="M0,48.842C0,25.818,0,14.306,7.153,7.153S25.818,0,48.842,0,83.379,0,90.532,7.153s7.153,18.665,7.153,41.689,0,34.537-7.153,41.689-18.665,7.153-41.689,7.153-34.537,0-41.689-7.153S0,71.867,0,48.842Z" fill="#243a5a"/>
  <path id="Path_12" data-name="Path 12" d="M36.859,26a2.1,2.1,0,0,1,2.2,2.426,12.211,12.211,0,0,1-23.934,0A2.1,2.1,0,0,1,17.322,26Z" transform="translate(21.752 37.495)" fill="#2df8bb"/>
  <path id="Path_13" data-name="Path 13" d="M27.093,24.665a2.03,2.03,0,0,0-1.44,2.888,9.768,9.768,0,1,0,1.529-11.61,2.03,2.03,0,0,0,.643,3.162l1.239.715a2.442,2.442,0,0,1-.589,4.474Z" transform="translate(36.652 18.747)" fill="#2df8bb"/>
  <path id="Path_14" data-name="Path 14" d="M23.845,24.665a2.03,2.03,0,0,1,1.44,2.888,9.768,9.768,0,1,1-1.528-11.61,2.03,2.03,0,0,1-.644,3.162l-1.239.715a2.442,2.442,0,0,0,.589,4.474Z" transform="translate(10.095 18.747)" fill="#2df8bb"/>
</svg>
